# xmcd
#
# Track frame offsets:
#	150
#	10365
#	20537
#	33297
#	44079
#	54651
#	68401
#	79789
#	91577
#	103227
#	114552
#	124931
#	138835
#	149796
#	158645
#	171664
#	183013
#	195956
#	206365
#	216940
#	231655
#	242149
#	253355
#	262268
#	272797
#	284397
#	295842
#	306900
#	320813
#	331051
#
# Disc length: 4568 seconds
# Revision: 0
# Processed by: cddbd v1.5.2PL0 Copyright (c) Steve Scherf et al.
# Submitted via: dBpowerAMP V12.0
#
DISCID=d011d61e
DTITLE=Ike Turner - Rocket 88 1951-1960 R&B and Rock and Roll Sides
DYEAR=2011
DGENRE=Blues
TTITLE0=Much Later (Feat. Jackie Brenston)
TTITLE1=The Mistreater (Feat. Jackie Brenston)
TTITLE2=Rocket 88 (Feat. Jackie Brenston)
TTITLE3=I’m Tore Up (Feat. Billy Gales)
TTITLE4=She Made My Blood Run Cold
TTITLE5=I’m Lonesome Baby
TTITLE6=Loosely
TTITLE7=Trouble And Heartaches (Feat. Ben Burton)
TTITLE8=Trail Blazer
TTITLE9=My Real Gone Rocket (Feat. Jackie Brenston)
TTITLE10=Cubano Jump
TTITLE11=Drifting (Feat. Bobby “blue” Bland)
TTITLE12=Matchbox (Feat. Otis Rush)
TTITLE13=Box Top (Feat. Otis Rush and Tina Turner)
TTITLE14=A Fool In Love (Feat. Tina Turner)
TTITLE15=Looking For My Baby (Feat. Bonnie Turner)
TTITLE16=My Heart Belongs To You (Feat. Bonnie Turner)
TTITLE17=Step Back Baby (Feat. Sonny Blair)
TTITLE18=The Big Question
TTITLE19=I’m Tired Of Beggin’ (Feat. The Sly Fox)
TTITLE20=Love Is Scarce
TTITLE21=Early Times (Feat. Dennis Binder and His Orchestra)
TTITLE22=You’re My Angel
TTITLE23=Do You Mean It
TTITLE24=Peg Leg Woman (Feat. Willie King)
TTITLE25=You Keep On Worrying Me (Feat. Otis Rush)
TTITLE26=My Baby's Gone
TTITLE27=Riding In The Moonlight (Feat. Howlin’ Wolf)
TTITLE28=What Am I To Do (Feat. The Rockers)
TTITLE29=Ain’t Got No Home (Feat. The Starr’s)
EXTD=
EXTT0=
EXTT1=
EXTT2=
EXTT3=
EXTT4=
EXTT5=
EXTT6=
EXTT7=
EXTT8=
EXTT9=
EXTT10=
EXTT11=
EXTT12=
EXTT13=
EXTT14=
EXTT15=
EXTT16=
EXTT17=
EXTT18=
EXTT19=
EXTT20=
EXTT21=
EXTT22=
EXTT23=
EXTT24=
EXTT25=
EXTT26=
EXTT27=
EXTT28=
EXTT29=
PLAYORDER=
